<svg xmlns="http://www.w3.org/2000/svg" width="38" height="40" viewBox="0 0 38 40"><g><g><g/><g><g><g><path fill="#4b289e" d="M37.207.958c.438 0 .793.35.793.781v22.972a.787.787 0 0 1-.793.781H30.88a.787.787 0 0 1-.793-.78v-.213c-2.166.233-2.384 1.504-2.752 3.644-.2 1.164-.427 2.482-1.083 3.72-1.124 2.122-1.215 3.853-1.282 5.118-.024.455-.045.849-.114 1.182-.21 1.015-.888 1.675-1.86 1.812-.12.017-.245.025-.372.025-1.579 0-3.614-1.271-4.459-2.85-1.17-2.187-1.228-4.166-.194-6.616.689-1.634.253-3.68-1.053-5.08l-12.883.001c-1.072 0-2.076-.388-2.828-1.093A3.822 3.822 0 0 1 0 21.542c0-1.587 1.039-2.968 2.502-3.547-.38-.805-.46-1.86-.176-2.942.243-.924.777-1.883 1.641-2.55-.504-1.16-.438-2.664.222-3.993.366-.736.868-1.328 1.471-1.755-.41-.927-.388-2.17.105-3.375C6.629 1.263 8.598 0 11.032 0h8.896c1.933 0 3.842.52 5.688 1.024 1.544.42 3.015.82 4.471.934V1.74c0-.431.355-.781.793-.781zm-.794 1.562h-4.74v7.19a.787.787 0 0 1-.792.781.787.787 0 0 1-.794-.781V3.525c-1.662-.114-3.301-.56-4.894-.995-1.824-.498-3.547-.967-5.265-.967h-8.896c-2.54 0-3.5 1.678-3.795 2.4-.352.86-.336 1.648-.135 2.137a4.587 4.587 0 0 1 1.083-.127c.439 0 .794.35.794.781a.787.787 0 0 1-.794.782 2.823 2.823 0 0 0-1.123.222c-.787.34-1.228.996-1.448 1.439-.428.862-.501 1.866-.225 2.598a4.77 4.77 0 0 1 1.274-.166c.438 0 .793.35.793.781a.787.787 0 0 1-.793.781c-2.048 0-2.662 1.726-2.801 2.255-.245.93-.096 1.867.333 2.254l3.71-.08h.017c.43 0 .784.34.793.765a.787.787 0 0 1-.776.798l-3.966.085c-1.316.028-2.386 1.048-2.386 2.273 0 .658.253 1.258.714 1.69.456.427 1.071.662 1.734.662h15.833c.438 0 .793.349.793.78a.787.787 0 0 1-.793.782h-.978c1.06 1.73 1.303 3.883.546 5.678-.855 2.028-.818 3.51.133 5.288.647 1.21 2.328 2.13 3.202 2.007.205-.029.432-.1.53-.576.046-.22.064-.56.085-.952.07-1.329.175-3.336 1.46-5.76.54-1.019.735-2.157.924-3.258.375-2.182.797-4.637 4.317-4.951v-6.19c0-.431.355-.781.793-.781.439 0 .794.35.794.781v7.189h4.74z"/></g><g><path fill="#4b289e" d="M30.883 12.44a.787.787 0 0 0-.793.781c0 .432.355.782.793.782.438 0 .794-.35.794-.782a.787.787 0 0 0-.794-.781z"/></g></g></g></g></g></svg>