<svg xmlns="http://www.w3.org/2000/svg" width="44" height="48" viewBox="0 0 44 48"><g><g><g/><g><g><g><path fill="#4b289e" d="M43.05 42.343a.937.937 0 0 1-1.058 1.373l-4.91-1.332-1.301 4.918a.938.938 0 0 1-1.719.23l-6.015-10.42a3.75 3.75 0 0 1-2.56 1 3.744 3.744 0 0 1-2.318-.805 1.882 1.882 0 0 0-2.332 0 3.747 3.747 0 0 1-3.162.71 3.75 3.75 0 0 1-1.717-.905l-6.015 10.42a.938.938 0 0 1-1.718-.23l-1.302-4.918-4.91 1.332a.938.938 0 0 1-1.057-1.373l7.05-12.211a1.882 1.882 0 0 0-1-.608 3.745 3.745 0 0 1-2.526-2.03 3.745 3.745 0 0 1-.011-3.24c.373-.79.16-1.724-.52-2.273a3.745 3.745 0 0 1-1.395-2.925c0-1.14.509-2.207 1.396-2.924.679-.55.892-1.484.519-2.274a3.745 3.745 0 0 1 .011-3.24 3.745 3.745 0 0 1 2.526-2.03c.85-.2 1.448-.95 1.454-1.823a3.745 3.745 0 0 1 1.417-2.914 3.746 3.746 0 0 1 3.156-.732 1.882 1.882 0 0 0 2.101-1.012 3.745 3.745 0 0 1 2.54-2.012 3.746 3.746 0 0 1 3.162.71c.687.54 1.646.54 2.332 0a3.745 3.745 0 0 1 3.162-.71 3.745 3.745 0 0 1 2.54 2.012 1.882 1.882 0 0 0 2.102 1.012 3.745 3.745 0 0 1 3.156.732 3.745 3.745 0 0 1 1.416 2.914 1.882 1.882 0 0 0 1.454 1.824 3.745 3.745 0 0 1 2.527 2.029c.495 1.028.5 2.209.011 3.24-.373.79-.16 1.725.52 2.274a3.746 3.746 0 0 1 1.395 2.924c0 1.141-.509 2.207-1.396 2.925a1.882 1.882 0 0 0-.519 2.273 3.745 3.745 0 0 1-.011 3.24 3.745 3.745 0 0 1-2.527 2.03 1.882 1.882 0 0 0-.998.608zM14.742 35.47a1.881 1.881 0 0 0-1.709-.476 3.745 3.745 0 0 1-3.156-.732 3.75 3.75 0 0 1-1.169-1.598l-4.992 8.647 3.627-.984a.937.937 0 0 1 1.151.665l.962 3.633zm12.445-.29a3.752 3.752 0 0 1 4.19-2.017 1.879 1.879 0 0 0 1.582-.367c.448-.357.707-.89.71-1.462a3.752 3.752 0 0 1 2.9-3.635 1.878 1.878 0 0 0 1.267-1.018c.248-.515.25-1.108.005-1.625a3.752 3.752 0 0 1 1.035-4.533c.445-.36.7-.895.7-1.467 0-.572-.255-1.107-.7-1.467a3.752 3.752 0 0 1-1.035-4.532 1.879 1.879 0 0 0-.005-1.626 1.879 1.879 0 0 0-1.267-1.017 3.752 3.752 0 0 1-2.9-3.636 1.879 1.879 0 0 0-.71-1.461 1.878 1.878 0 0 0-1.583-.368 3.752 3.752 0 0 1-4.189-2.017 1.878 1.878 0 0 0-1.274-1.009 1.879 1.879 0 0 0-1.586.356 3.752 3.752 0 0 1-4.65 0 1.879 1.879 0 0 0-1.585-.356 1.878 1.878 0 0 0-1.274 1.01 3.752 3.752 0 0 1-4.189 2.016 1.878 1.878 0 0 0-1.583.368c-.448.356-.707.89-.71 1.461a3.752 3.752 0 0 1-2.9 3.636A1.879 1.879 0 0 0 6.17 11.43a1.878 1.878 0 0 0-.005 1.626 3.752 3.752 0 0 1-1.035 4.532c-.445.36-.7.895-.7 1.467 0 .572.255 1.107.7 1.467a3.752 3.752 0 0 1 1.035 4.533 1.879 1.879 0 0 0 .005 1.625c.249.516.71.887 1.268 1.018a3.752 3.752 0 0 1 2.898 3.635c.004.572.263 1.105.71 1.462.448.357 1.025.49 1.584.367a3.752 3.752 0 0 1 4.189 2.017c.252.514.716.882 1.274 1.01a1.878 1.878 0 0 0 1.586-.357 3.754 3.754 0 0 1 4.65 0 1.88 1.88 0 0 0 1.585.356 1.879 1.879 0 0 0 1.274-1.009zm13.102 6.131l-4.992-8.647a3.75 3.75 0 0 1-1.169 1.598 3.746 3.746 0 0 1-3.156.732 1.88 1.88 0 0 0-1.708.476l5.285 9.155.962-3.633a.937.937 0 0 1 1.151-.665z"/></g><g><path fill="#4b289e" d="M25.916 25.965l-3.911-2.824-3.912 2.824a.938.938 0 0 1-1.441-1.047l1.477-4.595-3.896-2.863a.937.937 0 0 1 .555-1.693h4.822l1.504-4.582a.937.937 0 0 1 1.781 0l1.504 4.582h4.822a.938.938 0 0 1 .555 1.693l-3.897 2.863 1.478 4.595a.937.937 0 0 1-1.441 1.047zm-1.219-3.192l-.81-2.518a.938.938 0 0 1 .338-1.043l2.137-1.57H23.72a.938.938 0 0 1-.891-.645l-.825-2.513-.825 2.513a.937.937 0 0 1-.89.645h-2.642l2.136 1.57c.325.239.461.659.338 1.043l-.81 2.518 2.144-1.549a.936.936 0 0 1 1.098 0z"/></g><g><path fill="#4b289e" d="M35.13 19.055c0-7.237-5.889-13.125-13.125-13.125-7.237 0-13.125 5.888-13.125 13.125 0 5.505 3.476 10.465 8.65 12.341a.938.938 0 0 0 .639-1.762 11.285 11.285 0 0 1-7.414-10.58c0-6.202 5.047-11.25 11.25-11.25s11.25 5.048 11.25 11.25c0 4.72-2.98 8.972-7.415 10.58a.937.937 0 1 0 .64 1.762c5.173-1.876 8.65-6.836 8.65-12.341z"/></g><g><path fill="#4b289e" d="M21.997 30.31c-.246 0-.488.1-.662.275a.945.945 0 0 0-.275.662c0 .247.1.489.275.663a.945.945 0 0 0 .662.275c.247 0 .489-.1.663-.275a.945.945 0 0 0 .275-.662c0-.247-.1-.489-.275-.663a.945.945 0 0 0-.663-.275z"/></g></g></g></g></g></svg>