<svg xmlns="http://www.w3.org/2000/svg" width="32" height="40" viewBox="0 0 32 40"><g><g><g><g><path fill="#4b289e" d="M16.002 0C7.498 0 .58 6.918.58 15.422c0 3.527 1.221 6.973 3.44 9.708l.01.015 3.457 4.43a.781.781 0 0 0 1.232-.961l-3.434-4.402a13.886 13.886 0 0 1-3.142-8.79c0-7.642 6.217-13.86 13.859-13.86s13.86 6.218 13.86 13.86a13.88 13.88 0 0 1-3.17 8.821.793.793 0 0 0-.072.102L16.002 37.95l-3.336-4.275a.781.781 0 1 0-1.231.96l3.951 5.065a.781.781 0 0 0 1.232 0l11.3-14.477a.751.751 0 0 0 .048-.069 15.446 15.446 0 0 0 3.458-9.731C31.424 6.918 24.506 0 16.002 0z"/></g></g></g><g><g><g><path fill="#4b289e" d="M10.644 31.099a.787.787 0 0 0-.553-.229.786.786 0 0 0-.781.782.786.786 0 0 0 .781.781.787.787 0 0 0 .553-.229.79.79 0 0 0 .228-.552.79.79 0 0 0-.228-.553z"/></g></g></g><g><g><g><path fill="#4b289e" d="M23.493 8.109l-.089-.09a.781.781 0 0 0-1.106 1.104l.078.078a.779.779 0 0 0 1.104.013.781.781 0 0 0 .013-1.105z"/></g></g></g><g><g><g><path fill="#4b289e" d="M25.142 10.313a.781.781 0 0 0-1.364.763c1.933 3.458 1.324 7.833-1.481 10.639-3.473 3.472-9.123 3.472-12.596 0-3.472-3.473-3.472-9.123 0-12.596A8.862 8.862 0 0 1 20.16 7.54a.781.781 0 0 0 .73-1.381 10.556 10.556 0 0 0-6.38-1.104 10.38 10.38 0 0 0-5.913 2.96 10.4 10.4 0 0 0-3.066 7.403 10.4 10.4 0 0 0 3.066 7.402A10.437 10.437 0 0 0 16 25.881c2.68 0 5.361-1.02 7.402-3.062a10.372 10.372 0 0 0 2.977-6.029 10.54 10.54 0 0 0-1.236-6.477z"/></g></g></g></g></svg>