<svg xmlns="http://www.w3.org/2000/svg" width="40" height="26" viewBox="0 0 40 26"><g><g><path fill="#4b289e" d="M40 21.778a4.195 4.195 0 0 1-1.09 2.828c-.307.337-.663.62-1.054.84a4.182 4.182 0 0 1-1.707.528l-.018.001a4.22 4.22 0 0 1-.342.014H4.211a4.22 4.22 0 0 1-.342-.014l-.017-.001H3.85A4.213 4.213 0 0 1 0 21.778V4.24a4.198 4.198 0 0 1 1.313-3.053A4.193 4.193 0 0 1 4.21.03h31.578a4.193 4.193 0 0 1 2.928 1.188A4.198 4.198 0 0 1 40 4.241zm-2.743 2.203l-9.482-12.037-4.754 4.191A4.559 4.559 0 0 1 20 17.274c-1.08 0-2.16-.38-3.02-1.139l-4.755-4.192-2.13 2.704a.78.78 0 1 1-1.227-.967l2.184-2.771-9.11-8.033c-.24.4-.38.866-.38 1.365v17.537c0 .335.063.655.177.95l3.246-4.133a.78.78 0 1 1 1.228.965l-3.471 4.42c.048.033.097.063.147.093l.017.009.002.001a2.657 2.657 0 0 0 1.303.344H35.79a2.653 2.653 0 0 0 .318-.02 2.65 2.65 0 0 0 .982-.322l.01-.006.01-.005c.05-.03.1-.06.148-.093zM4.211 1.593c-.39 0-.76.084-1.094.236l9.512 8.388a.751.751 0 0 1 .024.02l5.36 4.727a3.01 3.01 0 0 0 3.974 0l5.36-4.727a.366.366 0 0 1 .024-.02l9.512-8.388a2.631 2.631 0 0 0-1.094-.236zm34.05 21.137c.114-.296.177-.617.177-.952V4.24c0-.499-.14-.966-.38-1.365l-9.11 8.032z"/></g><g><path fill="#4b289e" d="M8.362 16.203a.783.783 0 0 0-.287-.351.786.786 0 0 0-.732-.072.772.772 0 0 0-.467.569.788.788 0 0 0 .044.451.773.773 0 0 0 .569.467.777.777 0 0 0 .934-.765.787.787 0 0 0-.06-.3z"/></g></g></svg>