<svg xmlns="http://www.w3.org/2000/svg" width="48" height="45" viewBox="0 0 48 45"><g><g><g/><g><g><g><g><path fill="#4b289e" d="M45.188 8.13A2.816 2.816 0 0 1 48 10.943v30.375a2.816 2.816 0 0 1-2.813 2.812H6.938a2.816 2.816 0 0 1-2.812-2.813v-1.312H2.812A2.816 2.816 0 0 1 0 37.192V6.819a2.816 2.816 0 0 1 2.813-2.813h2.25V2.88c0-1.654 1.345-3 3-3 1.654 0 3 1.346 3 3v1.125h7.874V2.88c0-1.654 1.346-3 3-3 1.655 0 3 1.346 3 3v1.125h7.875V2.88c0-1.654 1.346-3 3-3 1.655 0 3 1.346 3 3v1.125h2.25a2.816 2.816 0 0 1 2.813 2.813V8.13zm-10.5-1.125c0 .62.504 1.125 1.124 1.125.62 0 1.126-.505 1.126-1.125V2.88a1.126 1.126 0 0 0-2.25 0zm-13.876 0c0 .62.505 1.125 1.125 1.125s1.125-.505 1.125-1.125V2.88c0-.62-.504-1.125-1.125-1.125-.62 0-1.125.505-1.125 1.125zm-13.875 0c0 .62.505 1.125 1.125 1.125s1.126-.505 1.126-1.125V2.88a1.126 1.126 0 0 0-2.25 0zM2.813 5.88a.939.939 0 0 0-.937.938v8.437H42V6.817a.939.939 0 0 0-.938-.937h-2.25v1.125c0 1.654-1.345 3-3 3-1.654 0-3-1.346-3-3V5.88h-7.874v1.125c0 1.654-1.346 3-3 3-1.655 0-3-1.346-3-3V5.88h-7.875v1.125c0 1.654-1.346 3-3 3-1.655 0-3-1.346-3-3V5.88zm43.313 5.063a.939.939 0 0 0-.938-.938h-1.312v27.188a2.816 2.816 0 0 1-2.813 2.812H26.157a.938.938 0 0 1 0-1.875h14.906c.517 0 .938-.42.938-.938V17.13H1.875v20.063c0 .516.42.937.938.937h14.906a.938.938 0 0 1 0 1.875H6v1.313c0 .516.42.937.938.937h38.25c.516 0 .937-.42.937-.938z"/></g><g><path fill="#4b289e" d="M21.938 32.663l-3.488 1.835a.938.938 0 0 1-1.36-.989l.666-3.885-2.823-2.75a.938.938 0 0 1 .52-1.6l3.9-.567 1.745-3.534a.937.937 0 0 1 1.681 0l1.745 3.534 3.9.567a.938.938 0 0 1 .52 1.6l-2.823 2.75.666 3.885a.937.937 0 0 1-1.36.989zm-.436-1.889a.936.936 0 0 1 .873 0l2.243 1.18-.428-2.498a.937.937 0 0 1 .27-.83l1.815-1.77-2.509-.364a.938.938 0 0 1-.706-.513l-1.122-2.273-1.121 2.273a.938.938 0 0 1-.706.513l-2.509.364 1.815 1.77a.937.937 0 0 1 .27.83l-.428 2.498z"/></g><g><path fill="#4b289e" d="M21.938 38.13c-.247 0-.489.1-.663.275a.945.945 0 0 0-.275.663c0 .246.1.488.275.662a.945.945 0 0 0 .663.275c.246 0 .488-.1.662-.275a.944.944 0 0 0 .275-.662c0-.247-.1-.489-.275-.663a.944.944 0 0 0-.663-.275z"/></g></g></g></g></g></g></svg>