<svg xmlns="http://www.w3.org/2000/svg" width="18" height="20" viewBox="0 0 18 20"><g><g><path fill="#4b289e" d="M17.203 14.556c-.53 1.603-2.349 5.164-4.465 5.194-1.224 0-1.94-.778-3.326-.778-1.427 0-2.203.752-3.3.778-2.097.063-4.108-3.853-4.666-5.452-.417-1.214-.626-2.392-.626-3.534 0-3.862 2.58-5.76 5.009-5.798 1.176 0 2.671.857 3.325.857.62 0 2.309-1.021 3.854-.9 1.63.125 2.868.77 3.686 1.941-1.462.888-2.186 2.093-2.177 3.692 0 .082-.152 2.662 2.686 4zM9.03 4.9c-.096-1.202.352-2.269 1.113-3.131C10.835.965 12.05.31 13.1.25c.035.462.143 1.746-1.045 3.157-.853.996-1.89 1.58-3.024 1.493z"/></g></g></svg>