<svg xmlns="http://www.w3.org/2000/svg" width="40" height="40" viewBox="0 0 40 40"><g><g><g><g><path fill="#4b289e" d="M39.213 19.232a.781.781 0 0 0-.781.78 18.315 18.315 0 0 1-5.4 13.026 18.314 18.314 0 0 1-13.035 5.4 18.314 18.314 0 0 1-13.035-5.4 18.314 18.314 0 0 1-5.4-13.035c0-4.924 1.918-9.554 5.4-13.035A18.43 18.43 0 0 1 28.146 3.46a.781.781 0 0 0 .69-1.401A19.992 19.992 0 0 0 5.858 5.863 19.866 19.866 0 0 0 0 20.003c0 5.341 2.08 10.363 5.857 14.14A19.867 19.867 0 0 0 19.997 40c5.342 0 10.363-2.08 14.14-5.857a19.868 19.868 0 0 0 5.857-14.13.781.781 0 0 0-.78-.781z"/></g></g></g><g><g><g><path fill="#4b289e" d="M31.52 3.656l-.021-.015a.781.781 0 1 0-.896 1.28l.019.013a.778.778 0 0 0 1.088-.19.781.781 0 0 0-.19-1.088z"/></g></g></g><g><g><g><path fill="#4b289e" d="M35.301 19.22a.781.781 0 0 0-.78.781l-.001.048a.781.781 0 0 0 .778.785h.003c.43 0 .78-.348.781-.778V20a.781.781 0 0 0-.78-.781z"/></g></g></g><g><g><g><path fill="#4b289e" d="M35.124 22.398a.781.781 0 0 0-.925.604c-1.405 6.675-7.384 11.52-14.218 11.52-8.011 0-14.529-6.517-14.529-14.528A14.5 14.5 0 0 1 12.56 7.498a.781.781 0 0 0 1.473.466l.865-1.751a.781.781 0 0 0-.354-1.047l-1.751-.865a.781.781 0 0 0-.692 1.4l.247.123a16.06 16.06 0 0 0-8.457 14.17c0 8.872 7.219 16.09 16.091 16.09a16.12 16.12 0 0 0 10.203-3.647 16.14 16.14 0 0 0 5.544-9.114.781.781 0 0 0-.604-.925z"/></g></g></g><g><g><g><path fill="#4b289e" d="M22.498 20a2.504 2.504 0 0 1-1.719 2.374v8.528a.781.781 0 0 1-1.562 0v-8.528a2.51 2.51 0 0 1-1.593-1.593h-6.453a.781.781 0 0 1 0-1.562h6.453a2.504 2.504 0 0 1 2.374-1.719c1.378 0 2.5 1.121 2.5 2.5zm-1.563 0a.938.938 0 0 0-1.874 0 .938.938 0 0 0 1.874 0z"/></g></g></g><g><g><g><path fill="#4b289e" d="M23.599 14.596h-1.523c1.086-1.09 2.304-2.665 2.304-4.251 0-1.546-1.039-2.585-2.585-2.585a2.588 2.588 0 0 0-2.585 2.585.781.781 0 0 0 1.562 0c0-.564.46-1.023 1.023-1.023 1.023 0 1.023.77 1.023 1.023 0 1.622-2.375 3.729-3.29 4.403a.781.781 0 0 0 .463 1.41H23.6a.781.781 0 1 0 0-1.562z"/></g></g></g><g><g><g><path fill="#4b289e" d="M31.702 11.181h-.122v-2.64a.781.781 0 0 0-1.562 0v2.64h-2.106v-2.64a.781.781 0 0 0-1.562 0v3.421c0 .432.35.781.781.781h2.887v2.648a.781.781 0 0 0 1.562 0v-2.648h.122a.781.781 0 0 0 0-1.562z"/></g></g></g><g><g><g><path fill="#4b289e" d="M37.219 11.2c-.324 0-.633.064-.917.177V8.541a.781.781 0 0 0-1.562 0v6.836a.781.781 0 0 0 1.562 0V13.68a.918.918 0 0 1 1.833 0v1.697a.781.781 0 0 0 1.563 0V13.68a2.482 2.482 0 0 0-2.48-2.48z"/></g></g></g></g></svg>