<svg xmlns="http://www.w3.org/2000/svg" width="40" height="40" viewBox="0 0 40 40"><g><g><g/><g><g><g><path fill="#4b289e" d="M39.089 33.86c.491 0 .92.366.91.857v4.26c0 .49-.428.866-.919.866H.92c-.491 0-.92-.375-.92-.866v-4.26c0-.491.429-.858.92-.858h1.402v-3.125c0-.492.438-.893.929-.893h2.018V16.088H2.706a.866.866 0 1 1-.563-1.545L19.433.36a.9.9 0 0 1 1.134 0l17.29 14.164a.876.876 0 0 1-.563 1.563H34.74V29.84h2.018c.491 0 .929.401.929.893v3.125zm-4.287-19.558L20.004 2.174 5.207 14.302zm-1.848 1.786h-1.519V29.84h1.519zm-3.305 0h-2.857V29.84h2.857zm-4.643 0h-1.519V29.84h1.519zm-3.305 0h-3.393V29.84H21.7zm-5.18 0h-1.518V29.84h1.518zm-3.304 0H10.36V29.84h2.858zm-4.644 0H7.055V29.84h1.518zM4.108 33.859h31.793v-2.232H4.108zm34.115 1.786H1.786v2.412h36.437z"/></g></g></g><g><g><g><path fill="#4b289e" d="M23.52 9.73v.01a3.51 3.51 0 1 1 0-.01zm-1.787.01c0-.956-.768-1.724-1.723-1.724-.956 0-1.724.768-1.724 1.724a1.725 1.725 0 0 0 3.447 0z"/></g></g></g></g></g></svg>