<svg xmlns="http://www.w3.org/2000/svg" width="16" height="12" viewBox="0 0 16 12"><g><g><path fill="#4b289e" d="M11.976 0c1.042 0 1.973.465 2.793 1.394.82.93 1.231 2.257 1.231 3.984 0 1.958-.505 3.551-1.515 4.78C13.475 11.386 12.071 12 10.272 12c-.6 0-1.089-.05-1.467-.15V9.86c.347.066.836.1 1.467.1 1.263 0 2.13-.548 2.604-1.644.442-.697.662-1.527.662-2.49-.378.499-.978.748-1.798.748-.852 0-1.562-.3-2.13-.897-.6-.597-.9-1.377-.9-2.34 0-.963.3-1.76.9-2.39.6-.63 1.388-.946 2.366-.946zm-8.71 0C4.308 0 5.24.465 6.06 1.394c.82.93 1.23 2.257 1.23 3.984 0 1.958-.504 3.551-1.514 4.78C4.765 11.386 3.361 12 1.562 12c-.6 0-1.089-.05-1.467-.15V9.86c.347.066.836.1 1.467.1 1.263 0 2.13-.548 2.604-1.644.442-.697.662-1.527.662-2.49-.378.499-.978.748-1.798.748-.852 0-1.562-.3-2.13-.897C.3 5.08 0 4.3 0 3.336c0-.963.3-1.76.9-2.39C1.498.316 2.287 0 3.265 0z"/></g></g></svg>