<svg xmlns="http://www.w3.org/2000/svg" width="40" height="36" viewBox="0 0 40 36"><g><g><g/><g><g><g><path fill="#4b289e" d="M39.362 28.893c.85 1.473.85 3.23 0 4.704a4.656 4.656 0 0 1-4.073 2.351H4.71c-1.7 0-3.223-.879-4.073-2.352a4.655 4.655 0 0 1 0-4.703L15.927 2.412A4.656 4.656 0 0 1 20 .06c1.7 0 3.223.88 4.073 2.352zm-2.03 1.172L22.045 3.584A2.336 2.336 0 0 0 20 2.404c-.853 0-1.617.44-2.044 1.18L2.667 30.064a2.336 2.336 0 0 0 0 2.36 2.336 2.336 0 0 0 2.044 1.18h30.578c.853 0 1.617-.44 2.044-1.18a2.336 2.336 0 0 0 0-2.36z"/></g></g></g><g><g><g><path fill="#4b289e" d="M21.173 11.75H18.83v11.717h2.343z"/></g></g></g><g><g><g><path fill="#4b289e" d="M20.002 25.81c-.861 0-1.562.7-1.562 1.562 0 .862.7 1.563 1.562 1.563.862 0 1.563-.701 1.563-1.563 0-.861-.701-1.562-1.563-1.562z"/></g></g></g></g></g></svg>