<svg xmlns="http://www.w3.org/2000/svg" width="47" height="48" viewBox="0 0 47 48"><g><g><g/><g><path fill="#4b289e" d="M42 0a5 5 0 1 1 0 10 5 5 0 0 1 0-10zm0 1.667a3.333 3.333 0 1 0 0 6.666 3.333 3.333 0 0 0 0-6.666z"/></g><g><path fill="#4b289e" d="M0 26.21v-8.64c0-.5.405-.905.904-.905h7.592a17.894 17.894 0 0 1 2.35-2.173V9.423c0-.5.405-.905.904-.905a6.289 6.289 0 0 1 5.242 2.797 21.895 21.895 0 0 1 7.47-.963 7.252 7.252 0 0 1 1.386-3.447A7.224 7.224 0 0 1 35.97 5.443a7.248 7.248 0 0 1 1.46 10.136 15.207 15.207 0 0 1 4.929 9.232h.123a2.713 2.713 0 0 0 2.711-2.716c0-1.5-1.214-2.715-2.711-2.715v-1.81A4.522 4.522 0 0 1 47 22.096c0 2.5-2.023 4.525-4.52 4.525a14.856 14.856 0 0 1-3.763 9.742l4.963 4.971a.906.906 0 0 1-.639 1.546h-4.208v4.215a.905.905 0 0 1-1.543.64l-6.189-6.198a21.891 21.891 0 0 1-14.58.237l-5.952 5.96a.904.904 0 0 1-1.543-.64V42.88h-4.21a.904.904 0 0 1-.638-1.546l4.519-4.53a16.437 16.437 0 0 1-1.737-2.191A8.581 8.581 0 0 1 0 26.21zm26.212-14.976c0 1.127.356 2.225 1.015 3.138a15.635 15.635 0 0 1 5.248 2.208 5.418 5.418 0 0 0 4.582-5.366 5.417 5.417 0 0 0-5.422-5.411 5.432 5.432 0 0 0-5.424 5.43zM1.808 26.209a6.76 6.76 0 0 0 5.82 6.678c.267.037.504.191.646.42.654 1.043 1.435 2 2.326 2.85l.013.011a.907.907 0 0 1 0 1.28L6.998 41.07h2.93c.5 0 .904.405.904.905v2.931l4.817-4.818a.903.903 0 0 1 .953-.21 19.948 19.948 0 0 0 14.379-.239.904.904 0 0 1 .982.198l5.061 5.07v-2.932c0-.5.405-.905.904-.905h2.931l-4.032-4.039a.906.906 0 0 1-.011-1.267 13.185 13.185 0 0 0 3.857-9.142h-1.808v-1.81h1.66a13.469 13.469 0 0 0-4.354-7.935 7.162 7.162 0 0 1-1.915 1.108c.275.254.552.512.806.783l-1.331 1.225A13.823 13.823 0 0 0 23.5 15.76v-1.81c.499 0 .994.03 1.479.076a7.118 7.118 0 0 1-.501-1.853 20.016 20.016 0 0 0-7.592 1.087.904.904 0 0 1-1.107-.445 4.503 4.503 0 0 0-3.125-2.395v4.526a.904.904 0 0 1-.372.728 15.993 15.993 0 0 0-2.697 2.487.905.905 0 0 1-.685.315H1.808z"/></g><g><path fill="#4b289e" d="M15 20a2 2 0 0 1 2 2h2a4 4 0 1 0-8 0h2a2 2 0 0 1 2-2z"/></g><g><path fill="#4b289e" d="M7 23.5C7 22.12 5.657 21 4 21v1.667c.552 0 1 .373 1 .833 0 .46-.448.833-1 .833V26c1.657 0 3-1.12 3-2.5z"/></g></g></g></svg>