<svg xmlns="http://www.w3.org/2000/svg" width="40" height="40" viewBox="0 0 40 40"><g><g><path fill="#4b289e" d="M18.159 30.49a.781.781 0 1 0 1.105 1.104.781.781 0 0 0-1.105-1.105z"/></g><g><path fill="#4b289e" d="M38.197 29.137a3.907 3.907 0 0 1 .616 6.027l-2.18 2.18c-3.343 3.343-8.066 3.143-12.505 1.521-4.486-1.639-9.379-4.964-13.777-9.363-4.298-4.297-7.562-9.061-9.193-13.414C-.746 11.006-.295 6.863 2.462 4.106l2.312-2.312.001-.002.648-.648a3.906 3.906 0 0 1 6.045.646l4.283 5.952.025.037a3.882 3.882 0 0 1-.533 4.859l-3.234 3.234a.777.777 0 0 0-.17.85.77.77 0 0 1 .048.162c.082.254.704 2.056 2.431 4.324 2.265 2.974 5.265 5.248 8.917 6.758a.78.78 0 0 0 .85-.17l3.235-3.233a3.882 3.882 0 0 1 4.859-.533c.03.02.059.04.086.064zm-6.9-3.816a2.329 2.329 0 0 0-2.872.347l-.986.985 10.107 7.568.162-.162a2.344 2.344 0 0 0-.398-3.635.77.77 0 0 1-.087-.064zM6.527 2.249l-.183.184 6.839 10.056.955-.956a2.329 2.329 0 0 0 .33-2.898l-4.28-5.95a2.344 2.344 0 0 0-3.66-.436zm29 33.99l.903-.902-10.107-7.568-1.132 1.133a2.337 2.337 0 0 1-2.553.508c-5-2.068-8.058-5.218-9.742-7.495-1.145-1.548-2.28-3.649-2.526-4.66a2.334 2.334 0 0 1 .535-2.488l1.153-1.154L5.22 3.557 3.567 5.211C.67 8.106 1.454 12.426 2.62 15.54c1.555 4.148 4.692 8.715 8.835 12.857 4.242 4.242 8.933 7.438 13.209 9 3.243 1.185 7.76 1.947 10.864-1.158z"/></g><g><path fill="#4b289e" d="M16.695 28.627c-.826-.723-2.253-1.968-3.005-2.741-1.843-1.895-3.777-4.19-4.927-5.85a.781.781 0 1 0-1.284.89c1.45 2.093 3.581 4.497 5.091 6.049.794.817 2.233 2.072 3.094 2.827a.782.782 0 0 0 1.03-1.175z"/></g></g></svg>