<svg xmlns="http://www.w3.org/2000/svg" width="40" height="36" viewBox="0 0 40 36"><g><g><g/><g><g><g><path fill="#4b289e" d="M28.178-.05H8.81A.812.812 0 0 0 8 .76c0 .445.364.81.81.81h19.368c.445 0 .81-.365.81-.81a.812.812 0 0 0-.81-.81z"/></g></g></g><g><g><g><path fill="#4b289e" d="M32.186 4H4.81a.812.812 0 0 0-.81.81c0 .445.356.81.81.81h27.376c.446 0 .81-.365.81-.81a.812.812 0 0 0-.81-.81z"/></g></g></g><g><g><g><path fill="#4b289e" d="M40 33.476v.024c0 2.008-4.057 2.551-6.453 2.551-1.587 0-3.077-.186-4.211-.534-1.36-.421-1.927-.988-2.121-1.498-.98-.017-1.96-.122-2.924-.324a6.552 6.552 0 0 1-2.016 1.044 6.33 6.33 0 0 1-7.91-4.178H3.205C1.433 30.561 0 29.087 0 27.314V11.193A3.222 3.222 0 0 1 3.206 7.97H33.79a3.236 3.236 0 0 1 3.223 3.223v14.526c.445.097.883.227 1.304.397 1.093.445 1.643 1.044 1.643 1.79 0 .048 0 .096-.008.145l.025 2.632zm-4.956-6.405a14.47 14.47 0 0 0-1.481-.065h-.122c-2.704 0-4.316.575-4.737.915.421.332 2.033.915 4.737.915 2.72 0 4.357-.583 4.81-.923-.34-.25-1.352-.672-3.207-.842zM22.843 22.1l.016.72c.51.21.988.486 1.425.826.948.227 2.138.356 3.336.356 2.826 0 4.77-.64 5.174-1.02v-.955c-.356.137-.728.259-1.1.348-1.175.3-2.632.461-4.09.461-1.635 0-3.473-.21-4.76-.736zm4.761-.883c2.6 0 4.478-.542 5.045-.923-.567-.38-2.446-.923-5.045-.923-.477 0-.923.016-1.336.048h-.008c-2.121.17-3.093.648-3.393.875.43.34 2.033.923 4.737.923zm6.81 4.162c.243.016.534.032.802.065h-.009c.057 0 .098.008.179.016v-1.781h-.972zm-4.534-15.093c0 2.502 2.048 4.567 4.55 4.567h.956v-3.66a1.617 1.617 0 0 0-1.604-1.604h-3.903zm-28.26 4.567h.94c2.502 0 4.567-2.025 4.567-4.527V9.59h-3.92a1.598 1.598 0 0 0-1.587 1.604zm5.507 13.376c0-2.502-2.065-4.55-4.567-4.55h-.94v3.635c0 .883.713 1.628 1.587 1.628h3.92zm7.247-1.49a8.55 8.55 0 0 1-4.3-6 8.547 8.547 0 0 1 6.923-9.903 8.547 8.547 0 0 1 9.903 6.923c.227-.008.461-.016.704-.016 1.571 0 3.166.195 4.373.535 1.595.453 2.413 1.133 2.413 2.008v.145l.024.114v1.514h.972v-5.587h-.956c-3.393 0-6.17-2.785-6.17-6.186v-.697H8.745v.737c0 3.393-2.794 6.146-6.186 6.146h-.94v5.587h.94c3.392 0 6.186 2.77 6.186 6.17v.713h5.344c-.008-.081-.008-.179-.008-.26 0-.655.097-1.311.291-1.943zm.696-1.465a6.361 6.361 0 0 1 6.154-2.891l-.049-1.92c-.008-.056-.016-.112-.016-.177 0-.527.3-1.272 1.716-1.822.648-.251 1.466-.445 2.397-.567a6.927 6.927 0 0 0-6.785-5.563 6.925 6.925 0 0 0-6.923 6.923 6.95 6.95 0 0 0 3.506 6.017zm10.056 3.392a4.715 4.715 0 0 0-4.713-4.704 4.718 4.718 0 0 0-4.226 2.631.712.712 0 0 1-.089.195 4.587 4.587 0 0 0-.397 1.886 4.703 4.703 0 0 0 3.312 4.494 4.71 4.71 0 0 0 5.903-3.093 4.87 4.87 0 0 0 .21-1.409zm1.976 3.717l-.016-1.182a14.927 14.927 0 0 1-.85-.04 5.911 5.911 0 0 1-.608 1.109c.47.056.964.097 1.474.113zm-.356-3.717c0 .3-.024.6-.065.9.13.007.251.007.38.015l-.015-1.174c-.106 0-.211 0-.308-.008.008.09.008.178.008.267zm6.04-3.303v-.55c-.242.096-.51.185-.801.266-1.207.348-2.818.543-4.389.543-.575 0-1.133-.024-1.676-.073.219.38.397.785.534 1.206.349.025.713.04 1.077.04.988-.938 3.158-1.351 5.255-1.432zm-4.089 5.328c.43.34 2.033.923 4.737.923 2.964 0 4.64-.688 4.907-1.004 0-.025 0-.049.008-.073l-.008-.867a6.523 6.523 0 0 1-.761.268c-1.142.332-2.615.51-4.146.51-1.595 0-3.45-.21-4.753-.737zm9.677 2.737l-.009-.964c-1.408.591-3.473.785-4.93.785-1.564 0-3.402-.202-4.713-.72l.016.915c.097.105.478.372 1.4.607.948.243 2.155.372 3.41.372 2.915 0 4.566-.688 4.826-.996z"/></g></g></g><g><g><g><path fill="#4b289e" d="M24.035 28.668c0 2-1.627 3.627-3.627 3.627-2 0-3.628-1.627-3.628-3.627 0-2 1.628-3.628 3.628-3.628a3.637 3.637 0 0 1 3.627 3.628zm-1.62.008a2.008 2.008 0 1 0-4.015-.001 2.008 2.008 0 0 0 4.016 0z"/></g></g></g></g></g></svg>