<svg xmlns="http://www.w3.org/2000/svg" width="42" height="48" viewBox="0 0 42 48"><g><g><g/><g><g><path fill="#4b289e" d="M23.65 7.54c9.805 1.27 17.662 9.66 17.662 20.144C41.312 38.914 32.224 48 20.996 48 9.766 48 .68 38.912.68 27.684.68 17.199 8.54 8.81 18.343 7.54V5.105a2.555 2.555 0 0 1-2.549-2.553A2.555 2.555 0 0 1 18.347 0h5.299a2.555 2.555 0 0 1 2.552 2.552 2.555 2.555 0 0 1-2.549 2.553zm-5.303-4.31h5.299a.678.678 0 0 0 0-1.355h-5.3a.678.678 0 0 0 0 1.355zm1.87 4.153a19.889 19.889 0 0 1 1.557 0V5.105h-1.556zm19.22 20.3c0-10.015-8.022-18.195-18.013-18.435-10.372-.237-18.869 8.14-18.869 18.436 0 10.168 8.273 18.441 18.441 18.441s18.441-8.273 18.441-18.441z"/></g><g><path fill="#4b289e" d="M19.18 11.754a.938.938 0 1 0 .21 1.863c8.451-.956 15.767 5.675 15.767 14.066 0 7.805-6.35 14.156-14.156 14.156-7.806 0-14.156-6.35-14.156-14.156a14.2 14.2 0 0 1 5.918-11.514.937.937 0 1 0-1.092-1.524A16.08 16.08 0 0 0 4.97 27.683c0 8.84 7.192 16.03 16.031 16.03 8.84 0 16.031-7.19 16.031-16.03 0-9.53-8.31-17.009-17.852-15.93z"/></g><g><path fill="#4b289e" d="M20.065 18.817a.937.937 0 1 1 1.875 0v5.33a3.669 3.669 0 0 1 2.725 3.54 3.667 3.667 0 0 1-3.662 3.662 3.667 3.667 0 0 1-3.663-3.662 3.669 3.669 0 0 1 2.725-3.54zm.938 7.082a1.79 1.79 0 0 0-1.788 1.788 1.79 1.79 0 0 0 1.788 1.787 1.79 1.79 0 0 0 1.787-1.787 1.79 1.79 0 0 0-1.787-1.788z"/></g><g><path fill="#4b289e" d="M8.748 26.1a.937.937 0 1 0 0 1.875h1.25a.937.937 0 1 0 0-1.875z"/></g><g><path fill="#4b289e" d="M33.258 27.975a.937.937 0 1 0 0-1.875h-1.25a.937.937 0 1 0 0 1.875z"/></g><g><path fill="#4b289e" d="M11.675 17.715a.938.938 0 0 0 0 1.325l.884.884a.938.938 0 0 0 1.325-1.325L13 17.715a.938.938 0 0 0-1.325 0z"/></g><g><path fill="#4b289e" d="M28.114 35.48l.884.884a.938.938 0 0 0 1.326-1.325l-.884-.884a.938.938 0 0 0-1.326 1.325z"/></g><g><path fill="#4b289e" d="M20.997 16.975c.518 0 .938-.42.938-.937v-1.25a.937.937 0 1 0-1.875 0v1.25c0 .517.42.937.938.937z"/></g><g><path fill="#4b289e" d="M20.06 38.047v1.25a.937.937 0 1 0 1.875 0v-1.25a.937.937 0 1 0-1.875 0z"/></g><g><path fill="#4b289e" d="M29.44 19.924l.884-.884A.938.938 0 0 0 29 17.715l-.884.884a.938.938 0 0 0 1.325 1.325z"/></g><g><path fill="#4b289e" d="M12.559 34.155l-.884.884A.938.938 0 0 0 13 36.364l.884-.884a.938.938 0 0 0-1.325-1.325z"/></g><g><path fill="#4b289e" d="M15.529 14.555a.937.937 0 1 0 0-1.875h-.003a.937.937 0 1 0 .003 1.875z"/></g></g></g></g></svg>