<svg xmlns="http://www.w3.org/2000/svg" width="48" height="48" viewBox="0 0 48 48"><g><g><g/><g><g><g><path fill="#4b289e" d="M48 24c0 3.162-.65 6.263-1.934 9.22a24.637 24.637 0 0 1-5.212 7.634 24.637 24.637 0 0 1-7.635 5.212A23.03 23.03 0 0 1 24 48a23.03 23.03 0 0 1-9.22-1.934 24.637 24.637 0 0 1-7.634-5.212 24.634 24.634 0 0 1-5.212-7.635A23.03 23.03 0 0 1 0 24c0-3.162.65-6.263 1.934-9.22a24.637 24.637 0 0 1 5.212-7.634 24.637 24.637 0 0 1 7.635-5.212A23.03 23.03 0 0 1 24 0c3.162 0 6.263.65 9.22 1.934a24.637 24.637 0 0 1 7.634 5.212 24.637 24.637 0 0 1 5.212 7.635A23.03 23.03 0 0 1 48 24zm-1.875 0C46.125 12.007 35.993 1.875 24 1.875S1.875 12.007 1.875 24 12.007 46.125 24 46.125 46.125 35.993 46.125 24z"/></g></g></g><g><g><g><path fill="#4b289e" d="M42.371 16.293a20.294 20.294 0 0 0-4.317-6.35 20.295 20.295 0 0 0-6.35-4.317A19.386 19.386 0 0 0 24 4.03c-3.606 0-7.365 1.231-10.87 3.56a.937.937 0 1 0 1.038 1.562c3.197-2.124 6.596-3.247 9.832-3.247 9.808 0 18.094 8.286 18.094 18.094 0 9.808-8.286 18.093-18.094 18.093-9.808 0-18.094-8.285-18.094-18.093 0-3.235 1.123-6.635 3.246-9.832a.937.937 0 1 0-1.561-1.038C5.26 16.635 4.03 20.394 4.03 24c0 2.652.537 5.245 1.596 7.706a20.294 20.294 0 0 0 4.317 6.35 20.293 20.293 0 0 0 6.35 4.316 19.387 19.387 0 0 0 15.412 0 20.294 20.294 0 0 0 6.35-4.317 20.294 20.294 0 0 0 4.316-6.35 19.386 19.386 0 0 0 0-15.411z"/></g></g></g><g><g><g><path fill="#4b289e" d="M10.777 9.84a.938.938 0 1 0 .001 1.876.938.938 0 0 0 0-1.876z"/></g></g></g><g><g><g><path fill="#4b289e" d="M36.185 19.31c0 1.002-.39 1.944-1.099 2.652l-11.25 11.25a3.725 3.725 0 0 1-2.651 1.098 3.725 3.725 0 0 1-2.651-1.099l-5.625-5.625a3.723 3.723 0 0 1-1.099-2.651c0-1.002.39-1.944 1.099-2.652a3.725 3.725 0 0 1 2.651-1.098c1.001 0 1.943.39 2.651 1.099l2.974 2.973 8.599-8.598a3.725 3.725 0 0 1 2.651-1.099c1.001 0 1.943.39 2.651 1.099a3.723 3.723 0 0 1 1.099 2.651zm-2.425 1.326c.355-.355.55-.825.55-1.326 0-.5-.195-.971-.55-1.325a1.863 1.863 0 0 0-1.325-.55c-.5 0-.971.195-1.325.55l-9.925 9.924-4.3-4.3a1.863 1.863 0 0 0-1.325-.549c-.5 0-.971.195-1.326.55-.354.354-.549.824-.549 1.325 0 .5.195.971.55 1.325l5.624 5.625c.355.355.826.55 1.326.55.5 0 .971-.195 1.326-.55z"/></g></g></g></g></g></svg>