<svg xmlns="http://www.w3.org/2000/svg" width="20" height="20" viewBox="0 0 20 20"><g><g><path fill="#4b289e" d="M19.192 12.008a3 3 0 0 1 .716 1.892v3a3 3 0 0 1-1 2.25 3 3 0 0 1-2 .76h-.38A19 19 0 0 1 .008 3.45a3 3 0 0 1 3-3.41h3a3 3 0 0 1 3 2.49c.03.23.07.46.12.68.101.445.231.883.39 1.31a2 2 0 0 1-1 2.48l-.42.28a12.18 12.18 0 0 0 2 2.66 12.181 12.181 0 0 0 2.66 2l.22-.45a2 2 0 0 1 2.48-1c.427.162.865.292 1.31.39.22.05.45.12.67.12a3 3 0 0 1 1.755 1.008zm-1.274 1.872a1 1 0 0 0-.79-1c-.273-.04-.543-.09-.81-.15a13.68 13.68 0 0 1-1.58-.46l-.62 1.4a1 1 0 0 1-.57.52 1 1 0 0 1-.76 0 14.49 14.49 0 0 1-7-7 1 1 0 0 1 .49-1.33l1.4-.65a11.12 11.12 0 0 1-.46-1.55c-.06-.266-.11-.536-.15-.81a1 1 0 0 0-1-.79h-3a1 1 0 0 0-.75.34 1.09 1.09 0 0 0-.25.82A17 17 0 0 0 16.778 18a1.049 1.049 0 0 0 .82-.25 1 1 0 0 0 .34-.75z"/></g></g></svg>