<svg xmlns="http://www.w3.org/2000/svg" width="16" height="19" viewBox="0 0 16 19"><g><g><path fill="#4b289e" d="M2 12.5a1 1 0 0 1-2 0V8a1 1 0 0 1 2 0z"/></g><g><path fill="#4b289e" d="M16 12.5a1 1 0 0 1-2 0V8a1 1 0 0 1 2 0z"/></g><g><path fill="#4b289e" d="M7 18a1 1 0 0 1-2 0v-4.5a1 1 0 0 1 2 0z"/></g><g><path fill="#4b289e" d="M11 18a1 1 0 0 1-2 0v-4.5a1 1 0 0 1 2 0z"/></g><g><path fill="#4b289e" d="M3 7v7.5a1 1 0 0 0 1 1h8a1 1 0 0 0 1-1V7z"/></g><g><path fill="#4b289e" d="M13 6H3c.172-2.178 2-4 5-4s4.827 1.823 5 4zM6.354 4.653a.5.5 0 1 0-.707-.708.5.5 0 0 0 .707.708zm4 0a.5.5 0 1 0-.707-.708.5.5 0 0 0 .707.708z"/></g><g/><g/></g></svg>