<svg xmlns="http://www.w3.org/2000/svg" width="38" height="48" viewBox="0 0 38 48"><g><g><g/><g><g><g><path fill="#4b289e" d="M34.664 40.044a4.053 4.053 0 0 1 2.934 4.687 4.049 4.049 0 0 1-3.97 3.27H4.13l-.033-.002-.034.001h-.3C1.869 47.952.33 46.375.33 44.482V3.517A3.497 3.497 0 0 1 3.756 0 67.339 67.339 0 0 1 4.131 0h29.496a4.05 4.05 0 0 1 4.046 4.045 4.053 4.053 0 0 1-3.01 3.91zM7.544 1.875c.4.627.633 1.372.633 2.17a4.02 4.02 0 0 1-.633 2.17h26.083a2.173 2.173 0 0 0 2.131-2.585 2.172 2.172 0 0 0-2.13-1.755zm28.254 42.08c0-1.197-.974-2.17-2.17-2.17h-3.539a.938.938 0 0 1 0-1.875h2.7V8.09H4.132a.938.938 0 0 1 0-1.875c1.196 0 2.17-.973 2.17-2.17a2.173 2.173 0 0 0-2.14-2.17h-.365a1.652 1.652 0 0 0-1.592 1.642v40.966c0 .884.718 1.62 1.602 1.642a77.415 77.415 0 0 0 .324 0c1.197 0 2.171-.974 2.171-2.17s-.974-2.17-2.17-2.17a.938.938 0 0 1 0-1.875h17.387a.938.938 0 0 1 0 1.875H7.544c.4.627.633 1.372.633 2.17 0 .798-.232 1.543-.633 2.17h26.083a2.171 2.171 0 0 0 2.171-2.17z"/></g><g><path fill="#4b289e" d="M26.702 40.489a.943.943 0 0 0-.912-.578.947.947 0 0 0-.841.635c-.127.37-.001.791.305 1.035a.945.945 0 0 0 1.077.062.946.946 0 0 0 .37-1.154z"/></g><g><path fill="#4b289e" d="M8.64 20.14c0-5.194 4.226-9.42 9.42-9.42 5.196 0 9.422 4.226 9.422 9.42 0 5.196-4.227 9.422-9.421 9.422-5.195 0-9.421-4.226-9.421-9.421zm1.875 0c0 4.162 3.385 7.547 7.546 7.547 4.16 0 7.546-3.385 7.546-7.546 0-4.161-3.385-7.546-7.546-7.546-4.161 0-7.546 3.385-7.546 7.546z"/></g><g><path fill="#4b289e" d="M13.305 19.818a.938.938 0 0 1 .485-1.49l2.227-.608 1.264-1.944a.938.938 0 0 1 1.572 0l1.264 1.944 2.227.608a.938.938 0 0 1 .485 1.49L21.38 21.63l.113 2.323a.937.937 0 0 1-1.271.921l-2.156-.824-2.156.824a.937.937 0 0 1-1.27-.921l.112-2.323zm2.355-.057l.78.975a.937.937 0 0 1 .204.63l-.061 1.244 1.15-.44a.937.937 0 0 1 .669 0l1.15.44-.061-1.243a.937.937 0 0 1 .204-.631l.78-.975-1.196-.326a.937.937 0 0 1-.54-.394l-.672-1.034-.673 1.034a.937.937 0 0 1-.538.394z"/></g><g><path fill="#4b289e" d="M26.783 33.26H9.577a.938.938 0 0 0 0 1.875h17.206a.938.938 0 0 0 0-1.875z"/></g></g></g></g></g></svg>