<svg xmlns="http://www.w3.org/2000/svg" width="48" height="48" viewBox="0 0 48 48"><g><g><g/><g><g><g><path fill="#4b289e" d="M46.032 26.128a2.031 2.031 0 0 0-.204 1.689l.81 2.518a3.89 3.89 0 0 1-1.726 4.557l-2.243 1.331a2.03 2.03 0 0 0-.967 1.408l-.441 2.589a3.886 3.886 0 0 1-3.66 3.247l-2.568.128a2.03 2.03 0 0 0-1.519.8l-1.566 2.06a3.93 3.93 0 0 1-4.766 1.177l-2.321-1.084a2.03 2.03 0 0 0-1.722 0l-2.322 1.084a3.928 3.928 0 0 1-4.766-1.177l-1.566-2.06a2.03 2.03 0 0 0-1.518-.8l-2.569-.128A3.886 3.886 0 0 1 6.74 40.22l-.441-2.59a2.031 2.031 0 0 0-.967-1.407l-2.243-1.331a3.89 3.89 0 0 1-1.725-4.558l.81-2.517a2.032 2.032 0 0 0-.205-1.69L.585 23.88a3.89 3.89 0 0 1 .585-4.833l1.872-1.843c.424-.418.644-1 .601-1.594l-.187-2.633a3.887 3.887 0 0 1 2.77-4.02l2.478-.746A2.03 2.03 0 0 0 9.983 7.07l1.037-2.393a3.932 3.932 0 0 1 4.34-2.28l2.514.493a2.03 2.03 0 0 0 1.67-.414l2-1.615a3.93 3.93 0 0 1 4.911 0l2.002 1.615a2.03 2.03 0 0 0 1.67.414l2.513-.494a3.932 3.932 0 0 1 4.34 2.281l1.037 2.393c.238.55.704.965 1.279 1.139l2.478.747a3.887 3.887 0 0 1 2.77 4.02l-.187 2.632a2.031 2.031 0 0 0 .601 1.594l1.871 1.843a3.89 3.89 0 0 1 .586 4.833zm-.213-3.231c.5-.812.374-1.846-.305-2.515l-1.871-1.844a3.903 3.903 0 0 1-1.156-3.062l.187-2.633a2.023 2.023 0 0 0-1.441-2.092l-2.478-.747a3.902 3.902 0 0 1-2.459-2.188L35.26 5.424a2.046 2.046 0 0 0-2.258-1.187l-2.514.493a3.9 3.9 0 0 1-3.208-.794L25.277 2.32a2.045 2.045 0 0 0-2.555 0L20.72 3.936a3.9 3.9 0 0 1-3.208.794l-2.515-.493a2.05 2.05 0 0 0-2.258 1.187l-1.037 2.393a3.901 3.901 0 0 1-2.458 2.187l-2.478.747a2.023 2.023 0 0 0-1.441 2.092l.187 2.633a3.904 3.904 0 0 1-1.156 3.062l-1.871 1.844a2.025 2.025 0 0 0-.305 2.515l1.384 2.248c.599.974.742 2.157.392 3.245l-.81 2.518a2.024 2.024 0 0 0 .898 2.372l2.243 1.331a3.902 3.902 0 0 1 1.858 2.704l.44 2.59a2.022 2.022 0 0 0 1.905 1.689l2.569.128a3.9 3.9 0 0 1 2.918 1.538l1.566 2.061a2.046 2.046 0 0 0 2.48.612l2.322-1.084a3.9 3.9 0 0 1 3.308 0l2.321 1.084a2.046 2.046 0 0 0 2.48-.612l1.566-2.06a3.9 3.9 0 0 1 2.918-1.54l2.57-.127a2.022 2.022 0 0 0 1.904-1.69l.441-2.589a3.903 3.903 0 0 1 1.858-2.704l2.242-1.331a2.024 2.024 0 0 0 .898-2.372l-.809-2.518a3.904 3.904 0 0 1 .392-3.245z"/></g></g></g><g><g><g><path fill="#4b289e" d="M12.747 11.398a.937.937 0 0 0-1.325-.007l-.014.014a.937.937 0 1 0 1.319 1.332l.014-.014a.937.937 0 0 0 .006-1.325z"/></g></g></g><g><g><g><path fill="#4b289e" d="M41.506 20.726a17.712 17.712 0 0 0-4.915-9.321A17.79 17.79 0 0 0 14.91 8.678a.937.937 0 1 0 .957 1.612 15.917 15.917 0 0 1 19.4 2.44 15.876 15.876 0 0 1 3.41 17.483.937.937 0 1 0 1.726.73 17.797 17.797 0 0 0 1.104-10.217z"/></g></g></g><g><g><g><path fill="#4b289e" d="M36.597 35.268a.937.937 0 0 0-1.325-.007l-.014.014a.937.937 0 1 0 1.319 1.332l.014-.014a.937.937 0 0 0 .006-1.325z"/></g></g></g><g><g><g><path fill="#4b289e" d="M33.418 38.033a.937.937 0 0 0-1.285-.327 15.872 15.872 0 0 1-8.124 2.235c-4.12 0-8.199-1.6-11.275-4.676a15.876 15.876 0 0 1-3.41-17.482.937.937 0 1 0-1.726-.73A17.796 17.796 0 0 0 6.494 27.27a17.712 17.712 0 0 0 4.914 9.321 17.799 17.799 0 0 0 12.602 5.225c3.117 0 6.255-.819 9.081-2.498a.938.938 0 0 0 .327-1.285z"/></g></g></g><g><g><g><path fill="#4b289e" d="M27.878 16.331a.937.937 0 0 0-1.277.356l-8.69 15.392a.937.937 0 1 0 1.633.922l8.69-15.393a.937.937 0 0 0-.356-1.277z"/></g></g></g><g><g><g><path fill="#4b289e" d="M33.584 30.227a3.941 3.941 0 0 1-3.937 3.936 3.941 3.941 0 0 1-3.937-3.936 3.941 3.941 0 0 1 3.937-3.937 3.941 3.941 0 0 1 3.937 3.937zm-1.875 0a2.064 2.064 0 0 0-2.062-2.062 2.064 2.064 0 0 0-2.062 2.062c0 1.137.925 2.062 2.062 2.062a2.064 2.064 0 0 0 2.062-2.062z"/></g></g></g><g><g><g><path fill="#4b289e" d="M22.294 17.767a3.941 3.941 0 0 1-3.937 3.936 3.941 3.941 0 0 1-3.937-3.936 3.941 3.941 0 0 1 3.937-3.937 3.941 3.941 0 0 1 3.937 3.937zm-1.875 0a2.064 2.064 0 0 0-2.062-2.062 2.064 2.064 0 0 0-2.062 2.062c0 1.137.925 2.062 2.062 2.062a2.064 2.064 0 0 0 2.062-2.062z"/></g></g></g></g></g></svg>