<svg xmlns="http://www.w3.org/2000/svg" width="287" height="40" viewBox="0 0 287 40"><g><g><g><path fill="#1f1f1f" d="M59.712 19.288c1.472.848 2.208 2.128 2.208 3.84 0 1.424-.504 2.592-1.512 3.504C59.4 27.544 58.16 28 56.688 28H49.56V11.2h6.624c1.44 0 2.648.448 3.624 1.344.992.88 1.488 2.008 1.488 3.384 0 1.392-.528 2.512-1.584 3.36zm-6.84-4.992v3.696h3.312c.512 0 .936-.176 1.272-.528.352-.352.528-.792.528-1.32s-.168-.968-.504-1.32c-.336-.352-.768-.528-1.296-.528zm3.816 10.608c.56 0 1.024-.184 1.392-.552.368-.384.552-.864.552-1.44 0-.56-.184-1.024-.552-1.392-.368-.384-.832-.576-1.392-.576h-3.816v3.96zm13.159 3.432c-1.808 0-3.32-.608-4.536-1.824-1.2-1.216-1.8-2.72-1.8-4.512 0-1.792.6-3.296 1.8-4.512 1.216-1.216 2.728-1.824 4.536-1.824 1.168 0 2.232.28 3.192.84.96.56 1.688 1.312 2.184 2.256l-2.664 1.56a2.697 2.697 0 0 0-1.104-1.176 3.11 3.11 0 0 0-1.632-.432c-.928 0-1.696.312-2.304.936-.608.608-.912 1.392-.912 2.352 0 .944.304 1.728.912 2.352.608.608 1.376.912 2.304.912.624 0 1.176-.136 1.656-.408.496-.288.864-.68 1.104-1.176l2.688 1.536a6.1 6.1 0 0 1-2.232 2.28c-.96.56-2.024.84-3.192.84zm9.49-5.064c.416 1.504 1.544 2.256 3.384 2.256 1.184 0 2.08-.4 2.688-1.2l2.496 1.44c-1.184 1.712-2.928 2.568-5.232 2.568-1.984 0-3.576-.6-4.776-1.8-1.2-1.2-1.8-2.712-1.8-4.536 0-1.808.592-3.312 1.776-4.512 1.184-1.216 2.704-1.824 4.56-1.824 1.76 0 3.208.608 4.344 1.824 1.152 1.216 1.728 2.72 1.728 4.512 0 .4-.04.824-.12 1.272zm6.072-2.4c-.176-.816-.544-1.424-1.104-1.824-.544-.4-1.168-.6-1.872-.6-.832 0-1.52.216-2.064.648-.544.416-.904 1.008-1.08 1.776zM103.938 28h-3.816l-6-7.872V28H90.81V11.2h3.312v7.416l5.76-7.416h3.816l-6.216 8.16zm8.478-12.336c1.616 0 2.992.616 4.128 1.848 1.152 1.216 1.728 2.712 1.728 4.488 0 1.776-.576 3.28-1.728 4.512-1.136 1.216-2.512 1.824-4.128 1.824-1.68 0-2.976-.584-3.888-1.752V32.8h-3.096V16h3.096v1.416c.912-1.168 2.208-1.752 3.888-1.752zm-2.952 8.784c.624.624 1.416.936 2.376.936s1.752-.312 2.376-.936c.64-.64.96-1.456.96-2.448s-.32-1.8-.96-2.424c-.624-.64-1.416-.96-2.376-.96s-1.752.32-2.376.96c-.624.624-.936 1.432-.936 2.424s.312 1.808.936 2.448zm13.607-1.176c.416 1.504 1.544 2.256 3.384 2.256 1.184 0 2.08-.4 2.688-1.2l2.496 1.44c-1.184 1.712-2.928 2.568-5.232 2.568-1.984 0-3.576-.6-4.776-1.8-1.2-1.2-1.8-2.712-1.8-4.536 0-1.808.592-3.312 1.776-4.512 1.184-1.216 2.704-1.824 4.56-1.824 1.76 0 3.208.608 4.344 1.824 1.152 1.216 1.728 2.72 1.728 4.512 0 .4-.04.824-.12 1.272zm6.072-2.4c-.176-.816-.544-1.424-1.104-1.824-.544-.4-1.168-.6-1.872-.6-.832 0-1.52.216-2.064.648-.544.416-.904 1.008-1.08 1.776zm15.589 4.224h1.584v6.12h-3.024V28h-7.44v3.216h-3.024v-6.12h1.464c.688-1.024 1.032-2.44 1.032-4.248V16h9.408zm-3.024 0v-6.312h-3.36v2.064c0 1.696-.248 3.112-.744 4.248zM156.939 16h2.304v12h-3.024v-6.816L150.579 28h-2.304V16h3.024v6.816zm14.597 0v2.976h-3.744V28h-3.096v-9.024h-3.792V16zm9.525 0h3.096v12h-3.096v-4.56h-4.776V28h-3.096V16h3.096v4.536h4.776zm11.357 3.84c1.36 0 2.456.376 3.288 1.128.832.736 1.248 1.72 1.248 2.952s-.416 2.224-1.248 2.976c-.832.736-1.928 1.104-3.288 1.104h-5.424V16h3.096v3.84zm5.856-3.84h3.096v12h-3.096zm-5.832 9.264c.432 0 .784-.12 1.056-.36.288-.256.432-.584.432-.984s-.144-.728-.432-.984c-.272-.256-.624-.384-1.056-.384h-2.352v2.712zm14.371-1.992c.416 1.504 1.544 2.256 3.384 2.256 1.184 0 2.08-.4 2.688-1.2l2.496 1.44c-1.184 1.712-2.928 2.568-5.232 2.568-1.984 0-3.576-.6-4.776-1.8-1.2-1.2-1.8-2.712-1.8-4.536 0-1.808.592-3.312 1.776-4.512 1.184-1.216 2.704-1.824 4.56-1.824 1.76 0 3.208.608 4.344 1.824 1.152 1.216 1.728 2.72 1.728 4.512 0 .4-.04.824-.12 1.272zm6.072-2.4c-.176-.816-.544-1.424-1.104-1.824-.544-.4-1.168-.6-1.872-.6-.832 0-1.52.216-2.064.648-.544.416-.904 1.008-1.08 1.776zM231.415 28h-3.816l-6-7.872V28h-3.312V11.2h3.312v7.416l5.76-7.416h3.816l-6.216 8.16zm9.535-12h3.096v12h-3.096v-1.416c-.928 1.168-2.232 1.752-3.912 1.752-1.6 0-2.976-.608-4.128-1.824-1.136-1.232-1.704-2.736-1.704-4.512 0-1.776.568-3.272 1.704-4.488 1.152-1.232 2.528-1.848 4.128-1.848 1.68 0 2.984.584 3.912 1.752zm-5.712 8.448c.624.624 1.416.936 2.376.936s1.752-.312 2.376-.936c.64-.64.96-1.456.96-2.448s-.32-1.8-.96-2.424c-.624-.64-1.416-.96-2.376-.96s-1.752.32-2.376.96c-.624.624-.936 1.432-.936 2.424s.312 1.808.936 2.448zm18.599-8.784c1.616 0 2.993.616 4.129 1.848 1.151 1.216 1.727 2.712 1.727 4.488 0 1.776-.576 3.28-1.727 4.512-1.136 1.216-2.513 1.824-4.129 1.824-1.679 0-2.976-.584-3.888-1.752V32.8h-3.095V16h3.095v1.416c.912-1.168 2.209-1.752 3.888-1.752zm-2.951 8.784c.623.624 1.416.936 2.376.936s1.752-.312 2.375-.936c.64-.64.961-1.456.961-2.448s-.321-1.8-.961-2.424c-.623-.64-1.415-.96-2.375-.96s-1.753.32-2.376.96c-.624.624-.937 1.432-.937 2.424s.313 1.808.937 2.448zM270.864 16v2.976h-3.744V28h-3.096v-9.024h-3.792V16zm7.078 3.84c1.36 0 2.456.376 3.288 1.128.832.736 1.248 1.72 1.248 2.952s-.416 2.224-1.248 2.976c-.832.736-1.928 1.104-3.288 1.104h-5.424V16h3.096v3.84zm5.856-3.84h3.096v12h-3.096zm-5.832 9.264c.432 0 .784-.12 1.056-.36.288-.256.432-.584.432-.984s-.144-.728-.432-.984c-.272-.256-.624-.384-1.056-.384h-2.352v2.712z"/></g><g><g/><g><path fill="#1f1f1f" d="M38.879 19.121a3 3 0 0 0 0-4.242l-9.9-9.9a3 3 0 0 0-4.242 0L7.766 21.95a3 3 0 0 0 0 4.243l9.9 9.9a3 3 0 0 0 4.242 0z"/></g><g><path fill="#4b289e" d="M32.234 19.121a3 3 0 0 0 0-4.242l-9.9-9.9a3 3 0 0 0-4.242 0L1.122 21.95a3 3 0 0 0 0 4.243l9.899 9.9a3 3 0 0 0 4.242 0z"/></g><g opacity=".3"><path fill="#fff" d="M24 18a2 2 0 1 1 4 0 2 2 0 1 1-4 0z"/></g><g><path fill="#fff" d="M22 20a2 2 0 1 1 4 0 2 2 0 1 1-4 0z"/></g></g></g></g></svg>